Coordinates
version=1
nRows=11
nColumns=40
inDegrees=yes

Units are S.I. units (second, meters, Newtons, ...)
Angles are in degrees.

endheader
time	pelvis_tilt	pelvis_list	pelvis_rotation	pelvis_tx	pelvis_ty	pelvis_tz	hip_flexion_r	hip_adduction_r	hip_rotation_r	knee_angle_r	knee_angle_r_beta	ankle_angle_r	subtalar_angle_r	mtp_angle_r	hip_flexion_l	hip_adduction_l	hip_rotation_l	knee_angle_l	knee_angle_l_beta	ankle_angle_l	subtalar_angle_l	mtp_angle_l	lumbar_extension	lumbar_bending	lumbar_rotation	arm_flex_r	arm_add_r	arm_rot_r	elbow_flex_r	pro_sup_r	wrist_flex_r	wrist_dev_r	arm_flex_l	arm_add_l	arm_rot_l	elbow_flex_l	pro_sup_l	wrist_flex_l	wrist_dev_l
      3.90014286	     -6.20838844	     -4.37505638	     -1.99156776	      0.75977519	      0.92835926	      0.44233519	     31.58679678	     -4.92007042	     -6.62423071	     58.72361538	     58.72361538	      3.23355295	    -17.39844067	      4.89785111	     15.96629776	     -3.98695247	     -4.86949332	     22.79068910	     22.79068910	     15.15166143	    -11.96079264	      2.44954431	    -11.00173816	      6.42145716	      2.25729602	      7.40125337	    -12.68164085	     -4.09196816	     36.69675206	     46.58110050	      0.00000000	      0.00000000	      9.48053269	    -13.82457574	     -2.58936463	     55.18877073	     45.93218287	      0.00000000	      0.00000000
      3.91278571	     -6.26883128	     -4.41201205	     -2.34568627	      0.75942900	      0.92873921	      0.44276929	     32.14477849	     -4.60031200	     -6.53566543	     56.33262366	     56.33262366	      3.14487578	    -16.70969561	      4.23801259	     15.29258454	     -4.07758349	     -5.21915105	     22.31044240	     22.31044240	     15.36006698	    -11.82090647	      2.38718679	    -11.10159478	      6.54120411	      2.48364806	      6.07099535	    -12.74871989	     -4.21994550	     34.31958258	     46.65819607	      0.00000000	      0.00000000	     10.49672480	    -13.99272678	     -3.09368551	     56.75900019	     46.02766000	      0.00000000	      0.00000000
      3.92542857	     -6.28828779	     -4.46995784	     -2.70438650	      0.75924371	      0.92910605	      0.44331022	     32.47509713	     -4.23583102	     -6.49625701	     53.57430115	     53.57430115	      3.21493611	    -15.77248498	      3.71727735	     14.53966174	     -4.17512342	     -5.53797303	     21.79799940	     21.79799940	     15.60765943	    -11.74185475	      2.35000306	    -11.17831515	      6.69840556	      2.62432936	      4.70837941	    -12.86360409	     -4.34621329	     32.43190243	     46.72245609	      0.00000000	      0.00000000	     11.50386305	    -14.17294032	     -3.56370650	     58.24690644	     46.11047700	      0.00000000	      0.00000000
      3.93807143	     -6.37793305	     -4.46414479	     -3.03127127	      0.75896925	      0.92928463	      0.44394102	     32.74064191	     -3.95923721	     -6.56072780	     50.50675400	     50.50675400	      3.16453504	    -14.68357889	      2.88085415	     13.89874437	     -4.21411486	     -5.84784524	     21.31015315	     21.31015315	     15.75710138	    -11.56999264	      2.27640709	    -11.28187508	      6.74490388	      2.77322388	      3.45123874	    -12.87318235	     -4.60324418	     30.32707132	     46.80426905	      0.00000000	      0.00000000	     12.30679688	    -14.40238395	     -4.18023546	     60.07670971	     46.21292742	      0.00000000	      0.00000000
      3.95071429	     -6.66389526	     -4.50539641	     -3.32067860	      0.75871825	      0.92907051	      0.44470937	     33.08590351	     -3.60030528	     -6.73207082	     47.19936431	     47.19936431	      3.21715313	    -13.57246128	      2.90155129	     13.51833040	     -4.30262392	     -6.04139439	     20.91211243	     20.91211243	     15.97910644	    -11.55292288	      2.23869902	    -11.01908475	      6.91018945	      2.46258670	      2.04712332	    -12.85596296	     -4.68182594	     29.43113961	     46.83223827	      0.00000000	      0.00000000	     13.07170525	    -14.93605694	     -4.55665985	     60.92540491	     46.26602939	      0.00000000	      0.00000000
      3.96335714	     -6.65646279	     -4.47731838	     -3.58622199	      0.75878242	      0.92910444	      0.44548353	     32.75500088	     -3.36427219	     -7.09199009	     43.27138941	     43.27138941	      2.27696620	    -12.48490627	     -0.84328804	     12.75177653	     -4.31648720	     -6.39739531	     20.42194509	     20.42194509	     16.09992078	    -11.33114757	      1.78570852	    -11.18516503	      6.89814724	      1.86036101	      1.94079124	    -12.58606448	     -6.29107790	     25.99328573	     47.05675621	      0.00000000	      0.00000000	     12.54812003	    -15.20889189	     -6.38645345	     65.17399955	     46.54749912	      0.00000000	      0.00000000
      3.97600000	     -6.75930197	     -4.46902681	     -3.79692644	      0.75886301	      0.92889712	      0.44635496	     32.51688045	     -3.07729878	     -7.51153488	     39.43783479	     39.43783479	      2.51219571	    -10.79960854	     -0.79774702	     12.15309338	     -4.33394033	     -6.57476218	     20.01235302	     20.01235302	     16.33519992	    -11.24760970	      1.73389132	    -11.15064503	      6.96591228	      1.98859751	      0.36624641	    -12.77640864	     -6.46794776	     25.20522876	     47.08435125	      0.00000000	      0.00000000	     13.54381980	    -15.29548385	     -6.77847940	     66.22839574	     46.61223974	      0.00000000	      0.00000000
      3.98864286	     -6.94245192	     -4.46146036	     -3.96949731	      0.75903869	      0.92840609	      0.44739320	     32.21082607	     -2.74567678	     -8.00913071	     35.45355420	     35.45355420	      2.70157592	     -9.02893144	     -0.64045403	     11.65531932	     -4.36814995	     -6.72869587	     19.63281954	     19.63281954	     16.59127259	    -11.12118985	      1.62015195	    -10.97563204	      7.03196645	      2.00095510	     -1.18182984	    -12.90470580	     -6.64682210	     24.59125787	     47.10665508	      0.00000000	      0.00000000	     14.35378570	    -15.46281551	     -7.13215703	     67.44850766	     46.67192030	      0.00000000	      0.00000000
      4.00128571	     -6.94515059	     -4.28946396	     -4.14659129	      0.75944632	      0.92787524	      0.44845023	     31.63531285	     -2.65803760	     -8.73083804	     31.53133040	     31.53133040	      2.85092558	     -6.53417247	     -0.91265125	     10.95495723	     -4.23581754	     -7.06604742	     19.26625526	     19.26625526	     16.85845963	    -10.78544724	      1.29021197	    -11.08558942	      6.88072416	      2.21644838	     -2.88043083	    -12.94933238	     -7.19463317	     24.27194341	     47.13788445	      0.00000000	      0.00000000	     15.00951958	    -15.52237612	     -7.72315196	     69.85623831	     46.78169267	      0.00000000	      0.00000000
      4.01392857	     -7.17597046	     -4.28727014	     -4.23535814	      0.76000791	      0.92694955	      0.44981565	     31.09923187	     -2.21316669	     -9.33172502	     27.48932684	     27.48932684	      2.90473946	     -4.92929985	     -0.37865191	     10.53899013	     -4.29397278	     -7.13218075	     18.97440552	     18.97440552	     17.14651037	    -10.71148952	      1.10070512	    -10.73218513	      6.93238674	      1.99276181	     -4.25514333	    -13.03680477	     -7.41647288	     23.94429718	     47.15294126	      0.00000000	      0.00000000	     15.52261211	    -15.77272696	     -8.01282816	     70.96054195	     46.83260010	      0.00000000	      0.00000000
      4.02657143	     -7.22028119	     -4.20336046	     -4.29798640	      0.76085242	      0.92606762	      0.45119987	     30.33657013	     -1.90552974	    -10.07836153	     23.73130818	     23.73130818	      2.95401299	     -2.83936269	      0.22720388	      9.89604617	     -4.25970195	     -7.28219590	     18.67426792	     18.67426792	     17.47512609	    -10.49789639	      0.81811118	    -10.64126633	      6.86576146	      1.97663734	     -5.74112169	    -13.11385960	     -7.69246797	     23.72174687	     47.16587419	      0.00000000	      0.00000000	     16.06914651	    -15.88398328	     -8.33781467	     72.52520674	     46.89518355	      0.00000000	      0.00000000
